<svg id="svg" version="1.1" xmlns="http://www.w3.org/2000/svg" xmlns:xlink="http://www.w3.org/1999/xlink" width="400" height="312.8712871287129" viewBox="0, 0, 400,312.8712871287129"><g id="svgg"><path id="path0" d="M194.316 75.898 C 194.231 75.983,191.989 76.189,189.334 76.355 C 186.679 76.520,183.662 76.813,182.629 77.004 C 179.322 77.616,174.845 78.624,173.463 79.068 C 172.726 79.305,171.873 79.499,171.570 79.499 C 171.266 79.499,170.883 79.627,170.720 79.783 C 170.556 79.939,169.930 80.210,169.327 80.384 C 167.769 80.834,166.191 81.388,165.102 81.866 C 164.585 82.093,163.459 82.581,162.598 82.951 C 159.858 84.129,156.184 86.026,154.253 87.261 C 153.795 87.554,152.738 88.205,151.906 88.708 C 145.205 92.755,134.602 102.683,130.396 108.848 C 129.899 109.576,129.371 110.172,129.222 110.172 C 129.073 110.172,128.951 110.319,128.951 110.498 C 128.951 110.799,127.780 112.632,127.359 112.989 C 127.257 113.075,126.232 114.765,125.080 116.745 C 123.929 118.725,122.857 120.556,122.698 120.814 C 121.949 122.032,118.936 128.535,118.936 128.933 C 118.936 129.087,118.736 129.612,118.491 130.100 C 116.890 133.291,114.311 142.250,113.279 148.200 C 113.100 149.233,112.810 150.782,112.634 151.643 C 111.455 157.420,111.465 174.690,112.652 180.908 C 112.832 181.854,113.130 183.404,113.314 184.351 C 113.498 185.297,113.796 186.917,113.976 187.950 C 114.156 188.983,114.430 189.983,114.584 190.172 C 114.739 190.362,114.958 191.207,115.070 192.050 C 115.183 192.894,115.464 193.696,115.697 193.834 C 115.950 193.984,116.119 194.641,116.119 195.477 C 116.119 196.507,116.241 196.870,116.588 196.870 C 117.217 196.870,117.210 194.437,116.578 193.602 C 115.239 191.831,116.330 190.500,119.288 190.297 L 121.569 190.141 121.943 188.732 C 122.283 187.453,122.320 187.414,122.348 188.303 C 122.365 188.841,122.581 189.450,122.828 189.655 C 123.075 189.860,123.376 190.475,123.496 191.022 C 123.616 191.569,123.895 192.439,124.115 192.956 C 124.336 193.474,124.968 195.164,125.521 196.714 C 137.141 229.274,161.875 252.285,191.236 257.854 C 201.106 259.725,205.259 259.815,216.275 258.397 C 223.459 257.472,231.006 255.389,236.776 252.739 C 241.228 250.694,245.035 248.681,247.199 247.227 C 247.939 246.729,248.663 246.322,248.808 246.322 C 248.954 246.322,249.153 246.111,249.252 245.853 C 249.352 245.595,249.592 245.383,249.786 245.383 C 250.191 245.383,256.109 240.873,257.843 239.243 C 260.842 236.424,263.499 233.741,264.636 232.385 C 266.367 230.319,267.202 229.344,267.710 228.795 C 267.948 228.537,268.690 227.551,269.357 226.604 C 270.025 225.657,270.679 224.836,270.810 224.778 C 270.941 224.721,271.049 224.481,271.049 224.246 C 271.049 224.011,271.225 223.706,271.440 223.568 C 271.655 223.430,272.002 223.036,272.212 222.692 C 272.421 222.347,273.055 221.316,273.620 220.399 C 275.696 217.032,278.133 212.395,279.489 209.233 C 279.858 208.372,280.285 207.387,280.439 207.042 C 280.592 206.698,281.019 205.642,281.387 204.695 C 281.755 203.748,282.256 202.511,282.499 201.946 C 282.743 201.380,282.943 200.676,282.944 200.381 C 282.945 200.085,283.156 199.440,283.414 198.947 C 283.671 198.454,283.881 197.771,283.881 197.429 C 283.881 197.088,284.073 196.364,284.308 195.822 C 284.941 194.359,286.156 188.427,286.722 184.038 C 286.889 182.746,287.171 180.915,287.348 179.969 C 287.866 177.212,288.063 166.135,287.661 162.441 C 286.799 154.516,285.793 147.868,285.354 147.191 C 285.217 146.979,285.020 146.064,284.916 145.156 C 284.812 144.248,284.537 143.228,284.304 142.888 C 284.071 142.549,283.881 141.836,283.881 141.305 C 283.881 140.773,283.674 140.065,283.422 139.731 C 283.169 139.397,282.953 138.701,282.942 138.185 C 282.931 137.668,282.715 136.972,282.463 136.638 C 282.210 136.304,282.002 135.811,282.001 135.543 C 282.000 135.274,281.789 134.651,281.532 134.158 C 281.275 133.665,281.064 133.117,281.064 132.941 C 281.064 132.764,280.762 131.970,280.394 131.177 C 280.025 130.383,279.541 129.311,279.317 128.795 C 278.488 126.876,276.425 122.688,275.732 121.518 C 275.554 121.217,275.241 120.583,275.037 120.110 C 274.834 119.636,274.557 119.249,274.423 119.249 C 274.288 119.249,274.178 119.059,274.178 118.827 C 274.178 118.595,273.897 118.081,273.552 117.684 C 273.208 117.287,272.926 116.772,272.926 116.541 C 272.926 116.309,272.803 116.119,272.651 116.119 C 272.500 116.119,272.201 115.696,271.987 115.180 C 271.774 114.664,271.475 114.241,271.324 114.241 C 271.172 114.241,271.049 114.092,271.049 113.909 C 271.049 113.634,270.359 112.612,268.627 110.325 C 268.496 110.151,267.860 109.353,267.214 108.551 C 266.569 107.749,266.041 107.022,266.041 106.935 C 266.041 105.640,252.846 93.385,247.695 89.897 C 245.757 88.585,242.632 86.608,242.097 86.357 C 241.753 86.195,241.049 85.792,240.532 85.462 C 239.200 84.609,234.370 82.271,234.229 82.411 C 234.165 82.476,234.639 82.798,235.283 83.127 C 235.927 83.455,236.642 83.901,236.872 84.116 C 237.102 84.331,237.562 84.507,237.894 84.507 C 238.559 84.507,238.719 85.007,238.118 85.207 C 237.556 85.395,236.307 85.102,236.307 84.784 C 236.307 84.358,235.438 84.456,235.285 84.898 C 235.113 85.396,235.694 86.749,236.272 87.198 C 236.910 87.693,236.288 87.934,235.368 87.548 C 230.622 85.556,221.144 83.791,221.927 85.045 C 222.384 85.776,221.668 87.171,219.742 89.307 C 214.621 94.982,205.240 95.007,200.033 89.358 C 198.427 87.616,196.732 84.184,197.023 83.266 C 197.249 82.556,196.611 82.210,194.065 81.662 C 191.946 81.207,191.648 80.954,192.139 80.036 C 192.446 79.463,192.464 78.990,192.211 78.077 C 192.029 77.415,191.911 76.856,191.949 76.835 C 191.987 76.813,192.934 76.574,194.053 76.304 C 195.178 76.033,195.726 75.798,195.279 75.778 C 194.834 75.759,194.401 75.813,194.316 75.898 M182.707 77.845 C 182.234 77.917,181.459 77.917,180.986 77.845 C 180.513 77.774,180.900 77.715,181.847 77.715 C 182.793 77.715,183.181 77.774,182.707 77.845 M177.957 78.911 C 177.153 79.100,176.616 79.089,176.407 78.880 C 176.190 78.662,176.582 78.570,177.637 78.592 L 179.186 78.623 177.957 78.911 M230.673 80.908 C 231.103 81.154,231.596 81.355,231.768 81.355 C 231.941 81.355,231.729 81.154,231.299 80.908 C 230.869 80.662,230.376 80.460,230.203 80.460 C 230.031 80.460,230.243 80.662,230.673 80.908 M232.726 81.837 C 233.060 82.089,233.474 82.296,233.646 82.296 C 233.818 82.296,233.686 82.089,233.352 81.837 C 233.018 81.584,232.603 81.377,232.431 81.377 C 232.259 81.377,232.392 81.584,232.726 81.837 M240.063 85.759 C 240.063 85.931,239.860 86.072,239.612 86.072 C 239.364 86.072,239.074 85.931,238.967 85.759 C 238.861 85.587,239.064 85.446,239.418 85.446 C 239.773 85.446,240.063 85.587,240.063 85.759 M199.352 105.623 C 201.567 106.768,202.420 108.496,202.988 112.989 C 203.578 117.666,204.297 123.112,204.661 125.665 C 204.833 126.870,205.201 129.546,205.479 131.612 C 205.757 133.678,206.178 136.706,206.414 138.341 C 206.651 139.977,207.087 143.005,207.384 145.070 C 208.117 150.174,206.837 149.677,218.917 149.556 L 229.264 149.452 230.312 150.235 C 233.528 152.636,233.633 154.674,231.005 163.693 C 229.927 167.394,228.936 170.845,228.803 171.362 C 228.452 172.715,226.993 177.905,226.293 180.282 C 225.964 181.401,224.626 186.119,223.319 190.767 C 222.012 195.415,220.674 200.133,220.346 201.252 C 220.017 202.371,218.679 207.089,217.372 211.737 C 216.066 216.385,214.726 221.103,214.395 222.222 C 214.064 223.341,213.506 225.313,213.156 226.604 C 211.994 230.891,209.954 232.248,207.293 230.504 C 205.151 229.101,204.544 227.159,203.922 219.718 C 203.670 216.706,203.252 211.776,202.992 208.764 C 202.733 205.751,202.306 200.681,202.042 197.496 C 201.779 194.311,201.430 190.297,201.267 188.576 C 201.105 186.854,200.877 184.076,200.762 182.402 C 200.483 178.350,201.394 178.660,189.895 178.703 C 178.255 178.747,177.781 178.639,176.209 175.572 C 175.048 173.310,175.104 172.666,176.994 166.492 C 178.672 161.013,179.019 159.870,180.125 156.182 C 180.383 155.321,180.799 153.948,181.050 153.130 C 181.300 152.312,181.781 150.728,182.120 149.609 C 182.458 148.490,183.881 143.842,185.282 139.280 C 186.683 134.718,188.019 130.352,188.252 129.577 C 188.484 128.803,188.898 127.430,189.173 126.526 C 189.447 125.622,189.883 124.178,190.141 123.318 C 190.399 122.457,190.822 121.049,191.080 120.188 C 191.338 119.327,191.746 117.954,191.987 117.136 C 195.247 106.064,195.020 106.686,196.106 105.831 C 197.099 105.050,198.119 104.985,199.352 105.623 M117.063 198.200 C 117.069 199.195,117.536 199.898,117.775 199.274 C 118.000 198.690,117.703 197.496,117.334 197.496 C 117.182 197.496,117.060 197.813,117.063 198.200 " stroke="none" fill="#32a3fb" fill-rule="evenodd"></path><path id="path1" d="M206.729 70.494 C 205.114 71.070,203.114 72.625,202.598 73.708 C 202.173 74.599,201.898 74.776,200.660 74.952 C 199.495 75.118,192.209 76.694,191.949 76.836 C 191.911 76.857,192.029 77.415,192.211 78.077 C 192.464 78.990,192.446 79.463,192.139 80.036 C 191.648 80.954,191.946 81.207,194.065 81.662 C 196.611 82.210,197.249 82.556,197.023 83.266 C 196.732 84.184,198.427 87.616,200.033 89.358 C 205.240 95.007,214.621 94.982,219.742 89.307 C 221.668 87.171,222.384 85.776,221.927 85.045 C 221.144 83.791,230.622 85.556,235.368 87.548 C 236.288 87.934,236.910 87.693,236.272 87.198 C 235.694 86.749,235.113 85.396,235.285 84.898 C 235.438 84.456,236.307 84.358,236.307 84.784 C 236.307 85.102,237.556 85.395,238.118 85.207 C 238.719 85.007,238.559 84.507,237.894 84.507 C 237.562 84.507,237.104 84.327,236.877 84.106 C 235.919 83.177,222.675 77.308,221.538 77.308 C 220.997 77.308,217.840 75.701,217.840 75.426 C 217.840 75.277,217.983 75.066,218.157 74.958 C 218.771 74.579,216.261 72.029,214.318 71.058 C 212.257 70.028,208.763 69.769,206.729 70.494 M180.986 77.845 C 181.459 77.917,182.234 77.917,182.707 77.845 C 183.181 77.774,182.793 77.715,181.847 77.715 C 180.900 77.715,180.513 77.774,180.986 77.845 M176.407 78.880 C 176.616 79.089,177.153 79.100,177.957 78.911 L 179.186 78.623 177.637 78.592 C 176.582 78.570,176.190 78.662,176.407 78.880 M238.967 85.759 C 239.074 85.931,239.364 86.072,239.612 86.072 C 239.860 86.072,240.063 85.931,240.063 85.759 C 240.063 85.587,239.773 85.446,239.418 85.446 C 239.064 85.446,238.861 85.587,238.967 85.759 M196.106 105.831 C 195.020 106.686,195.247 106.064,191.987 117.136 C 191.746 117.954,191.338 119.327,191.080 120.188 C 190.822 121.049,190.399 122.457,190.141 123.318 C 189.883 124.178,189.447 125.622,189.173 126.526 C 188.898 127.430,188.484 128.803,188.252 129.577 C 188.019 130.352,186.683 134.718,185.282 139.280 C 183.881 143.842,182.458 148.490,182.120 149.609 C 181.781 150.728,181.300 152.312,181.050 153.130 C 180.799 153.948,180.383 155.321,180.125 156.182 C 179.019 159.870,178.672 161.013,176.994 166.492 C 175.104 172.666,175.048 173.310,176.209 175.572 C 177.781 178.639,178.255 178.747,189.895 178.703 C 201.394 178.660,200.483 178.350,200.762 182.402 C 200.877 184.076,201.105 186.854,201.267 188.576 C 201.430 190.297,201.779 194.311,202.042 197.496 C 202.306 200.681,202.733 205.751,202.992 208.764 C 203.252 211.776,203.670 216.706,203.922 219.718 C 204.544 227.159,205.151 229.101,207.293 230.504 C 209.954 232.248,211.994 230.891,213.156 226.604 C 213.506 225.313,214.064 223.341,214.395 222.222 C 214.726 221.103,216.066 216.385,217.372 211.737 C 218.679 207.089,220.017 202.371,220.346 201.252 C 220.674 200.133,222.012 195.415,223.319 190.767 C 224.626 186.119,225.964 181.401,226.293 180.282 C 226.993 177.905,228.452 172.715,228.803 171.362 C 228.936 170.845,229.927 167.394,231.005 163.693 C 233.633 154.674,233.528 152.636,230.312 150.235 L 229.264 149.452 218.917 149.556 C 206.837 149.677,208.117 150.174,207.384 145.070 C 207.087 143.005,206.651 139.977,206.414 138.341 C 206.178 136.706,205.757 133.678,205.479 131.612 C 205.201 129.546,204.833 126.870,204.661 125.665 C 204.297 123.112,203.578 117.666,202.988 112.989 C 202.197 106.725,199.085 103.488,196.106 105.831 " stroke="none" fill="#e7eff6" fill-rule="evenodd"></path><path id="path2" d="M0.000 156.495 L 0.000 312.989 200.000 312.989 L 400.000 312.989 400.000 156.495 L 400.000 0.000 200.000 0.000 L 0.000 0.000 0.000 156.495 M215.493 49.278 C 218.478 49.815,221.792 50.927,223.944 52.115 C 224.804 52.590,226.007 53.231,226.615 53.538 C 228.032 54.253,232.978 58.903,234.708 61.146 C 238.564 66.144,240.821 73.006,240.779 79.604 C 240.759 82.799,240.536 83.203,239.179 82.501 C 238.654 82.230,238.005 82.092,237.737 82.195 C 237.101 82.439,237.421 82.942,238.213 82.942 C 238.552 82.942,238.911 83.153,239.010 83.412 C 239.110 83.670,239.377 83.881,239.604 83.881 C 239.832 83.881,240.204 84.059,240.431 84.276 C 240.659 84.493,241.197 84.844,241.628 85.056 C 242.481 85.477,243.571 86.137,243.818 86.385 C 244.166 86.733,245.997 87.950,246.172 87.950 C 246.327 87.950,248.360 89.388,249.609 90.380 C 249.781 90.517,250.485 91.047,251.174 91.559 C 251.862 92.070,252.584 92.629,252.777 92.801 C 252.971 92.973,253.816 93.672,254.655 94.353 C 256.267 95.661,264.104 103.412,265.428 105.008 C 273.243 114.423,278.694 123.867,282.861 135.211 C 284.033 138.402,284.437 139.736,285.563 144.131 C 290.238 162.388,289.883 179.757,284.453 198.435 C 282.315 205.788,276.065 219.046,272.874 222.997 C 272.731 223.173,271.188 225.219,269.445 227.543 C 265.662 232.586,258.533 239.827,253.991 243.240 C 250.428 245.916,247.648 247.887,247.437 247.887 C 247.358 247.887,246.687 248.275,245.947 248.748 C 241.346 251.690,235.991 254.136,229.264 256.366 C 225.064 257.758,218.124 259.173,213.302 259.621 C 212.097 259.733,209.703 260.021,207.981 260.261 C 172.550 265.202,138.112 245.607,121.049 210.798 C 120.205 209.077,119.387 207.429,119.232 207.136 C 110.342 190.379,108.298 159.673,114.679 138.732 C 114.955 137.829,115.380 136.420,115.623 135.603 C 115.867 134.785,116.371 133.341,116.742 132.394 C 117.114 131.448,117.528 130.321,117.664 129.890 C 118.219 128.125,121.763 120.864,123.622 117.684 C 124.870 115.548,128.550 109.924,128.947 109.546 C 129.038 109.460,129.531 108.826,130.043 108.138 C 136.248 99.803,147.170 90.180,155.572 85.646 C 156.165 85.326,157.426 84.648,158.372 84.140 C 160.400 83.052,167.113 80.126,167.589 80.123 C 167.770 80.122,168.296 79.924,168.758 79.683 C 169.220 79.442,170.065 79.145,170.636 79.023 C 171.207 78.901,171.815 78.693,171.987 78.560 C 172.287 78.330,173.162 78.096,177.272 77.149 C 178.285 76.915,179.263 76.574,179.447 76.390 C 179.631 76.207,180.422 76.046,181.205 76.034 C 181.988 76.022,182.911 75.901,183.255 75.766 C 183.930 75.500,183.777 75.450,180.818 74.966 C 179.419 74.737,179.419 74.338,180.821 69.953 C 184.307 59.044,193.646 51.075,205.321 49.047 C 207.168 48.727,213.187 48.863,215.493 49.278 " stroke="none" fill="#04142b" fill-rule="evenodd"></path><path id="path3" d="M205.600 67.716 C 203.422 68.613,202.360 69.360,200.685 71.177 C 199.443 72.524,199.233 73.007,199.354 74.232 C 199.394 74.647,199.028 74.798,197.590 74.959 C 196.591 75.071,195.007 75.293,194.069 75.454 C 193.132 75.614,190.526 75.886,188.279 76.059 C 186.032 76.231,183.208 76.582,182.003 76.837 C 179.428 77.383,181.752 77.268,184.820 76.698 C 185.681 76.538,187.441 76.397,188.732 76.385 C 190.023 76.372,193.474 76.012,196.401 75.585 C 199.327 75.157,201.801 74.806,201.898 74.806 C 201.995 74.805,202.304 74.324,202.584 73.736 C 204.181 70.388,210.219 69.010,214.318 71.058 C 216.261 72.029,218.771 74.579,218.157 74.958 C 217.983 75.066,217.840 75.277,217.840 75.426 C 217.840 75.688,220.981 77.306,221.499 77.310 C 222.011 77.314,231.046 80.766,233.251 81.800 C 237.246 83.673,239.568 84.840,240.532 85.459 C 241.049 85.791,241.753 86.195,242.097 86.357 C 242.632 86.608,245.757 88.585,247.695 89.897 C 252.846 93.385,266.041 105.640,266.041 106.935 C 266.041 107.022,266.569 107.749,267.214 108.551 C 267.860 109.353,268.496 110.151,268.627 110.325 C 270.359 112.612,271.049 113.634,271.049 113.909 C 271.049 114.092,271.172 114.241,271.324 114.241 C 271.475 114.241,271.774 114.664,271.987 115.180 C 272.201 115.696,272.500 116.119,272.651 116.119 C 272.803 116.119,272.926 116.309,272.926 116.541 C 272.926 116.772,273.208 117.287,273.552 117.684 C 273.897 118.081,274.178 118.595,274.178 118.827 C 274.178 119.059,274.288 119.249,274.423 119.249 C 274.557 119.249,274.834 119.636,275.037 120.110 C 275.241 120.583,275.531 121.182,275.683 121.440 C 276.463 122.772,278.468 126.830,279.317 128.795 C 279.541 129.311,280.025 130.383,280.394 131.177 C 280.762 131.970,281.064 132.764,281.064 132.941 C 281.064 133.117,281.275 133.665,281.532 134.158 C 281.789 134.651,282.000 135.274,282.001 135.543 C 282.002 135.811,282.210 136.304,282.463 136.638 C 282.715 136.972,282.931 137.668,282.942 138.185 C 282.953 138.701,283.169 139.397,283.422 139.731 C 283.674 140.065,283.881 140.773,283.881 141.305 C 283.881 141.836,284.071 142.549,284.304 142.888 C 284.537 143.228,284.812 144.248,284.916 145.156 C 285.020 146.064,285.217 146.979,285.354 147.191 C 285.793 147.868,286.799 154.516,287.661 162.441 C 288.063 166.135,287.866 177.212,287.348 179.969 C 287.171 180.915,286.889 182.746,286.722 184.038 C 286.156 188.427,284.941 194.359,284.308 195.822 C 284.073 196.364,283.881 197.088,283.881 197.429 C 283.881 197.771,283.671 198.454,283.414 198.947 C 283.156 199.440,282.945 200.085,282.944 200.381 C 282.943 200.676,282.743 201.380,282.499 201.946 C 282.256 202.511,281.755 203.748,281.387 204.695 C 281.019 205.642,280.592 206.698,280.439 207.042 C 280.285 207.387,279.858 208.372,279.489 209.233 C 278.133 212.395,275.696 217.032,273.620 220.399 C 273.055 221.316,272.421 222.347,272.212 222.692 C 272.002 223.036,271.655 223.430,271.440 223.568 C 271.225 223.706,271.049 224.011,271.049 224.246 C 271.049 224.481,270.935 224.721,270.796 224.778 C 270.656 224.836,270.086 225.552,269.528 226.370 C 268.970 227.188,268.204 228.199,267.825 228.617 C 267.446 229.036,266.714 229.906,266.197 230.551 C 265.681 231.196,265.047 231.955,264.789 232.237 C 264.531 232.519,264.039 233.093,263.696 233.511 L 263.072 234.272 263.966 233.490 C 264.458 233.059,265.719 231.651,266.769 230.360 C 267.819 229.069,268.767 227.942,268.875 227.856 C 269.295 227.522,274.178 220.409,274.178 220.131 C 274.178 220.017,274.377 219.702,274.619 219.430 C 275.231 218.743,279.565 210.297,280.575 207.825 C 281.031 206.706,281.534 205.509,281.691 205.164 C 283.625 200.934,286.127 191.286,287.534 182.629 C 288.351 177.601,288.351 161.388,287.534 156.025 C 284.780 137.951,278.859 123.404,268.773 109.931 C 264.916 104.778,257.793 97.165,254.568 94.748 C 254.058 94.366,253.309 93.739,252.903 93.355 C 252.497 92.972,251.590 92.268,250.887 91.791 C 250.184 91.315,249.538 90.854,249.452 90.767 C 246.799 88.084,234.510 81.646,226.135 78.552 C 225.102 78.170,223.883 77.664,223.426 77.426 C 222.969 77.189,222.308 76.995,221.958 76.995 C 221.046 76.995,220.841 76.461,221.597 76.056 C 222.868 75.376,219.203 70.053,216.503 68.657 C 212.937 66.813,208.688 66.446,205.600 67.716 M175.587 78.112 C 172.041 79.065,170.938 79.440,171.585 79.472 C 171.881 79.487,172.726 79.304,173.463 79.065 C 174.201 78.826,175.896 78.382,177.230 78.079 C 178.564 77.776,179.656 77.478,179.656 77.418 C 179.656 77.171,178.097 77.437,175.587 78.112 M167.919 80.475 C 166.714 80.979,166.080 81.327,166.510 81.249 C 167.579 81.054,170.475 80.023,170.763 79.734 C 171.220 79.274,170.078 79.572,167.919 80.475 M164.006 81.928 C 158.888 84.312,157.095 85.212,157.218 85.335 C 157.297 85.414,158.188 85.057,159.197 84.542 C 161.382 83.428,163.872 82.320,164.224 82.306 C 164.362 82.301,164.749 82.089,165.083 81.837 C 165.870 81.242,165.392 81.282,164.006 81.928 M154.304 86.854 C 154.086 87.116,154.052 87.324,154.227 87.324 C 154.399 87.324,154.715 87.113,154.930 86.854 C 155.147 86.593,155.181 86.385,155.006 86.385 C 154.834 86.385,154.518 86.596,154.304 86.854 M151.042 88.881 C 149.851 89.712,148.597 90.582,148.256 90.814 C 145.351 92.789,140.393 97.142,137.080 100.626 C 132.671 105.263,132.761 105.428,137.248 100.932 C 143.312 94.856,147.756 91.158,151.878 88.757 C 153.294 87.931,154.007 87.297,153.461 87.347 C 153.322 87.360,152.234 88.050,151.042 88.881 M131.726 106.651 C 130.305 108.207,128.893 110.172,129.196 110.172 C 129.359 110.172,129.898 109.574,130.395 108.842 C 130.891 108.110,131.368 107.441,131.455 107.355 C 131.978 106.834,132.781 105.790,132.658 105.790 C 132.577 105.790,132.158 106.178,131.726 106.651 M128.482 110.908 C 126.924 112.699,121.494 121.991,122.487 121.167 C 122.772 120.930,123.005 120.615,123.005 120.466 C 123.005 120.185,127.034 113.264,127.359 112.989 C 127.735 112.670,129.003 110.745,128.901 110.649 C 128.843 110.593,128.654 110.710,128.482 110.908 M120.387 124.769 C 120.091 125.390,119.906 125.957,119.977 126.028 C 120.048 126.099,120.348 125.648,120.643 125.025 C 120.939 124.402,121.123 123.836,121.053 123.766 C 120.983 123.696,120.683 124.147,120.387 124.769 M119.315 127.152 C 118.701 128.382,117.985 130.296,118.097 130.408 C 118.206 130.517,118.422 130.093,119.375 127.896 C 119.943 126.588,119.895 125.993,119.315 127.152 M117.298 132.181 C 116.805 133.392,115.671 136.963,114.439 141.186 C 114.158 142.147,113.942 143.204,113.960 143.533 C 113.993 144.140,114.030 144.031,114.996 140.532 C 116.139 136.393,116.759 134.453,117.621 132.313 C 117.881 131.666,118.035 131.077,117.963 131.004 C 117.890 130.931,117.591 131.461,117.298 132.181 M113.380 145.649 C 113.165 146.455,112.998 147.429,113.010 147.814 C 113.021 148.198,113.237 147.744,113.489 146.805 C 113.742 145.865,113.909 144.891,113.860 144.640 C 113.811 144.389,113.595 144.843,113.380 145.649 M112.441 150.788 C 111.915 153.848,111.989 154.962,112.550 152.426 C 112.797 151.307,112.962 149.969,112.916 149.452 C 112.861 148.837,112.698 149.297,112.441 150.788 M111.500 159.155 C 110.451 171.673,112.207 185.922,116.290 198.023 C 117.278 200.951,117.602 201.836,118.335 203.599 C 118.478 203.944,118.941 205.070,119.364 206.103 C 121.828 212.119,126.755 220.464,131.375 226.448 C 136.230 232.736,143.035 239.812,146.479 242.153 C 146.909 242.446,147.374 242.870,147.512 243.095 C 147.649 243.321,147.966 243.505,148.216 243.505 C 148.466 243.505,148.670 243.629,148.670 243.780 C 148.670 244.030,151.585 246.073,155.243 248.388 C 158.420 250.399,164.654 253.502,168.388 254.931 C 169.707 255.435,170.301 255.651,173.083 256.638 C 173.685 256.851,174.883 257.165,175.743 257.336 C 176.604 257.506,177.449 257.758,177.621 257.896 C 177.793 258.034,178.815 258.246,179.891 258.368 C 180.967 258.491,181.918 258.704,182.004 258.844 C 182.090 258.983,183.534 259.189,185.212 259.302 C 186.890 259.414,188.557 259.650,188.915 259.826 C 189.915 260.314,207.157 259.964,211.894 259.359 C 218.427 258.524,220.108 258.264,222.066 257.787 C 223.409 257.459,223.676 257.322,223.003 257.303 C 222.485 257.289,221.570 257.428,220.968 257.613 C 218.147 258.481,206.682 259.570,202.705 259.349 C 167.978 257.414,138.707 233.660,125.521 196.714 C 124.968 195.164,124.336 193.474,124.115 192.956 C 123.895 192.439,123.616 191.569,123.496 191.022 C 123.376 190.475,123.075 189.860,122.828 189.655 C 122.581 189.450,122.365 188.841,122.348 188.303 C 122.320 187.414,122.283 187.453,121.943 188.732 L 121.569 190.141 119.288 190.297 C 116.330 190.500,115.239 191.831,116.578 193.602 C 117.210 194.437,117.217 196.870,116.588 196.870 C 116.241 196.870,116.119 196.507,116.119 195.477 C 116.119 194.641,115.950 193.984,115.697 193.834 C 115.464 193.696,115.183 192.894,115.070 192.050 C 114.958 191.207,114.739 190.362,114.584 190.172 C 114.430 189.983,114.156 188.983,113.976 187.950 C 113.796 186.917,113.498 185.297,113.314 184.351 C 113.130 183.404,112.832 181.854,112.652 180.908 C 111.952 177.244,111.461 166.234,111.784 161.479 C 111.955 158.970,112.049 156.364,111.994 155.689 C 111.939 155.013,111.717 156.573,111.500 159.155 M117.782 198.152 C 118.019 199.057,117.696 199.896,117.332 199.322 C 116.982 198.770,116.984 197.496,117.334 197.496 C 117.486 197.496,117.688 197.791,117.782 198.152 M261.368 235.850 C 260.623 236.631,260.067 237.316,260.132 237.371 C 260.197 237.427,260.925 236.788,261.750 235.951 C 262.575 235.114,263.132 234.429,262.986 234.429 C 262.841 234.429,262.113 235.068,261.368 235.850 M258.093 238.983 C 256.272 240.704,250.452 245.200,249.687 245.478 C 249.386 245.587,249.139 245.822,249.139 246.000 C 249.139 246.177,249.005 246.322,248.842 246.322 C 248.678 246.322,247.939 246.729,247.199 247.227 C 244.953 248.736,240.395 251.133,236.463 252.873 C 233.836 254.035,233.032 254.446,233.372 254.453 C 235.789 254.502,249.346 246.695,255.099 241.941 C 258.439 239.180,259.450 238.283,259.593 237.950 C 259.848 237.357,259.724 237.443,258.093 238.983 M161.252 246.385 C 160.960 246.677,160.793 246.677,160.501 246.385 C 160.209 246.093,160.292 246.009,160.876 246.009 C 161.461 246.009,161.544 246.093,161.252 246.385 M163.067 247.261 C 163.067 247.433,162.864 247.574,162.616 247.574 C 162.368 247.574,162.078 247.433,161.972 247.261 C 161.865 247.089,162.068 246.948,162.423 246.948 C 162.777 246.948,163.067 247.089,163.067 247.261 M171.410 252.311 C 170.995 252.552,170.734 252.549,170.486 252.302 C 170.234 252.050,170.391 251.959,171.064 251.966 C 171.874 251.974,171.916 252.017,171.410 252.311 M173.552 253.208 C 173.446 253.380,173.164 253.521,172.926 253.521 C 172.689 253.521,172.407 253.380,172.300 253.208 C 172.190 253.030,172.460 252.895,172.926 252.895 C 173.393 252.895,173.663 253.030,173.552 253.208 M175.743 254.147 C 175.850 254.319,175.647 254.460,175.292 254.460 C 174.938 254.460,174.648 254.319,174.648 254.147 C 174.648 253.975,174.851 253.834,175.099 253.834 C 175.347 253.834,175.637 253.975,175.743 254.147 M229.421 255.421 C 227.958 255.905,226.148 256.461,225.400 256.655 C 224.652 256.849,224.123 257.091,224.225 257.193 C 224.412 257.381,224.673 257.314,229.423 255.871 C 232.101 255.056,233.530 254.432,232.551 254.504 C 232.293 254.523,230.884 254.936,229.421 255.421 M178.091 255.086 C 178.455 255.322,178.364 255.391,177.681 255.394 C 177.174 255.397,176.884 255.267,176.995 255.086 C 177.235 254.697,177.489 254.697,178.091 255.086 M181.023 256.348 C 180.810 256.561,180.445 256.568,179.944 256.367 C 179.232 256.083,179.251 256.064,180.266 256.045 C 181.007 256.031,181.245 256.126,181.023 256.348 M184.128 257.312 C 183.880 257.559,183.521 257.566,182.891 257.337 C 182.013 257.017,182.017 257.013,183.239 256.989 C 184.147 256.971,184.383 257.057,184.128 257.312 M187.246 258.124 C 186.858 258.198,186.225 258.198,185.837 258.124 C 185.450 258.049,185.767 257.988,186.541 257.988 C 187.316 257.988,187.633 258.049,187.246 258.124 M191.613 259.240 C 190.632 259.476,190.170 259.465,189.907 259.203 C 189.635 258.930,189.965 258.851,191.252 258.880 L 192.958 258.917 191.613 259.240 " stroke="none" fill="#2372cd" fill-rule="evenodd"></path><path id="path4" d="M205.321 49.047 C 193.646 51.075,184.307 59.044,180.821 69.953 C 179.419 74.338,179.419 74.737,180.818 74.966 C 183.777 75.450,183.930 75.500,183.255 75.766 C 182.911 75.901,181.988 76.022,181.205 76.034 C 180.422 76.046,179.631 76.207,179.447 76.390 C 179.263 76.574,178.285 76.915,177.272 77.149 C 173.162 78.096,172.287 78.330,171.987 78.560 C 171.815 78.693,171.207 78.901,170.636 79.023 C 170.065 79.145,169.220 79.442,168.758 79.683 C 168.296 79.924,167.770 80.122,167.589 80.123 C 167.113 80.126,160.400 83.052,158.372 84.140 C 157.426 84.648,156.165 85.326,155.572 85.646 C 153.499 86.765,146.928 91.274,144.445 93.281 C 139.479 97.296,133.597 103.365,130.043 108.138 C 129.531 108.826,129.038 109.460,128.947 109.546 C 128.550 109.924,124.870 115.548,123.622 117.684 C 121.763 120.864,118.219 128.125,117.664 129.890 C 117.528 130.321,117.114 131.448,116.742 132.394 C 116.371 133.341,115.867 134.785,115.623 135.603 C 115.380 136.420,114.955 137.829,114.679 138.732 C 108.298 159.673,110.342 190.379,119.232 207.136 C 119.387 207.429,120.205 209.077,121.049 210.798 C 138.112 245.607,172.550 265.202,207.981 260.261 C 209.703 260.021,212.097 259.733,213.302 259.621 C 218.124 259.173,225.064 257.758,229.264 256.366 C 234.397 254.664,235.797 254.092,240.382 251.825 C 243.527 250.269,243.831 250.101,245.947 248.748 C 246.687 248.275,247.358 247.887,247.437 247.887 C 247.648 247.887,250.428 245.916,253.991 243.240 C 258.533 239.827,265.662 232.586,269.445 227.543 C 271.188 225.219,272.731 223.173,272.874 222.997 C 274.280 221.256,279.163 212.207,280.977 207.981 C 288.733 189.910,290.897 167.196,286.641 148.513 C 284.432 138.819,282.250 132.576,278.249 124.511 C 274.862 117.683,270.726 111.391,265.428 105.008 C 264.104 103.412,256.267 95.661,254.655 94.353 C 253.816 93.672,252.971 92.973,252.777 92.801 C 252.584 92.629,251.862 92.070,251.174 91.559 C 250.485 91.047,249.781 90.517,249.609 90.380 C 248.360 89.388,246.327 87.950,246.172 87.950 C 245.997 87.950,244.166 86.733,243.818 86.385 C 243.571 86.137,242.481 85.477,241.628 85.056 C 241.197 84.844,240.659 84.493,240.431 84.276 C 240.204 84.059,239.832 83.881,239.604 83.881 C 239.377 83.881,239.110 83.670,239.010 83.412 C 238.911 83.153,238.552 82.942,238.213 82.942 C 237.421 82.942,237.101 82.439,237.737 82.195 C 238.005 82.092,238.654 82.230,239.179 82.501 C 242.276 84.103,241.063 72.652,237.375 65.473 C 235.189 61.215,229.648 55.070,226.615 53.538 C 226.007 53.231,224.804 52.590,223.944 52.115 C 219.288 49.545,210.650 48.122,205.321 49.047 M213.828 67.571 C 217.420 68.807,219.494 70.555,221.228 73.809 C 222.228 75.686,222.233 75.715,221.597 76.056 C 220.841 76.461,221.046 76.995,221.958 76.995 C 222.308 76.995,222.969 77.189,223.426 77.426 C 223.883 77.664,225.102 78.170,226.135 78.552 C 234.510 81.646,246.799 88.084,249.452 90.767 C 249.538 90.854,250.184 91.315,250.887 91.791 C 251.590 92.268,252.497 92.972,252.903 93.355 C 253.309 93.739,254.058 94.366,254.568 94.748 C 266.813 103.924,279.371 123.719,284.606 142.097 C 288.006 154.029,289.291 171.821,287.534 182.629 C 286.127 191.286,283.625 200.934,281.691 205.164 C 281.534 205.509,281.031 206.706,280.575 207.825 C 279.565 210.297,275.231 218.743,274.619 219.430 C 274.377 219.702,274.178 220.017,274.178 220.131 C 274.178 220.409,269.295 227.522,268.875 227.856 C 268.767 227.942,267.822 229.071,266.774 230.364 C 264.584 233.068,258.959 238.797,256.748 240.574 C 255.920 241.240,255.087 241.925,254.895 242.097 C 251.973 244.724,244.430 249.498,239.437 251.879 C 237.108 252.990,236.050 253.443,232.601 254.809 C 231.193 255.366,228.246 256.318,226.883 256.656 C 220.828 258.157,219.675 258.365,211.894 259.359 C 207.157 259.964,189.915 260.314,188.915 259.826 C 188.557 259.650,186.890 259.414,185.212 259.302 C 183.534 259.189,182.090 258.983,182.004 258.844 C 181.918 258.704,180.967 258.491,179.891 258.368 C 178.815 258.246,177.793 258.034,177.621 257.896 C 177.449 257.758,176.604 257.506,175.743 257.336 C 174.269 257.044,173.700 256.869,170.814 255.824 C 166.780 254.363,165.256 253.701,161.189 251.646 C 157.587 249.826,157.043 249.528,155.243 248.388 C 151.585 246.073,148.670 244.030,148.670 243.780 C 148.670 243.629,148.466 243.505,148.216 243.505 C 147.966 243.505,147.649 243.321,147.512 243.095 C 147.374 242.870,146.909 242.446,146.479 242.153 C 143.035 239.812,136.230 232.736,131.375 226.448 C 126.755 220.464,121.828 212.119,119.364 206.103 C 118.941 205.070,118.478 203.944,118.335 203.599 C 107.054 176.441,109.429 142.297,124.333 117.374 C 126.063 114.481,128.047 111.361,128.316 111.111 C 128.408 111.025,128.881 110.369,129.366 109.653 C 132.709 104.724,142.256 95.053,147.105 91.684 C 147.707 91.266,148.271 90.849,148.357 90.759 C 148.611 90.493,153.166 87.467,153.678 87.225 C 153.936 87.103,154.710 86.676,155.399 86.277 C 165.413 80.475,176.823 76.929,188.299 76.054 C 190.500 75.886,193.082 75.617,194.038 75.456 C 194.993 75.295,196.591 75.072,197.590 74.960 C 199.028 74.798,199.394 74.647,199.354 74.232 C 199.233 73.007,199.443 72.524,200.685 71.177 C 204.239 67.321,209.170 65.969,213.828 67.571 M160.501 246.385 C 160.793 246.677,160.960 246.677,161.252 246.385 C 161.544 246.093,161.461 246.009,160.876 246.009 C 160.292 246.009,160.209 246.093,160.501 246.385 M161.972 247.261 C 162.078 247.433,162.368 247.574,162.616 247.574 C 162.864 247.574,163.067 247.433,163.067 247.261 C 163.067 247.089,162.777 246.948,162.423 246.948 C 162.068 246.948,161.865 247.089,161.972 247.261 M170.486 252.302 C 170.734 252.549,170.995 252.552,171.410 252.311 C 171.916 252.017,171.874 251.974,171.064 251.966 C 170.391 251.959,170.234 252.050,170.486 252.302 M172.300 253.208 C 172.407 253.380,172.689 253.521,172.926 253.521 C 173.164 253.521,173.446 253.380,173.552 253.208 C 173.663 253.030,173.393 252.895,172.926 252.895 C 172.460 252.895,172.190 253.030,172.300 253.208 M174.648 254.147 C 174.648 254.319,174.938 254.460,175.292 254.460 C 175.647 254.460,175.850 254.319,175.743 254.147 C 175.637 253.975,175.347 253.834,175.099 253.834 C 174.851 253.834,174.648 253.975,174.648 254.147 M176.995 255.086 C 176.884 255.267,177.174 255.397,177.681 255.394 C 178.364 255.391,178.455 255.322,178.091 255.086 C 177.489 254.697,177.235 254.697,176.995 255.086 M179.944 256.367 C 180.445 256.568,180.810 256.561,181.023 256.348 C 181.245 256.126,181.007 256.031,180.266 256.045 C 179.251 256.064,179.232 256.083,179.944 256.367 M182.891 257.337 C 183.521 257.566,183.880 257.559,184.128 257.312 C 184.383 257.057,184.147 256.971,183.239 256.989 C 182.017 257.013,182.013 257.017,182.891 257.337 M185.837 258.124 C 186.225 258.198,186.858 258.198,187.246 258.124 C 187.633 258.049,187.316 257.988,186.541 257.988 C 185.767 257.988,185.450 258.049,185.837 258.124 M189.907 259.203 C 190.170 259.465,190.632 259.476,191.613 259.240 L 192.958 258.917 191.252 258.880 C 189.965 258.851,189.635 258.930,189.907 259.203 " stroke="none" fill="#516377" fill-rule="evenodd"></path></g></svg>